<svg width="17" height="17" viewBox="0 0 17 17" fill="none" xmlns="http://www.w3.org/2000/svg">
<path fill-rule="evenodd" clip-rule="evenodd" d="M4.58337 0.25L15.8334 0.25C16.0323 0.25 16.2231 0.329018 16.3637 0.46967C16.5044 0.610322 16.5834 0.801088 16.5834 1V12.25C16.5834 12.6642 16.2476 13 15.8334 13C15.4192 13 15.0834 12.6642 15.0834 12.25V2.81066L1.3637 16.5303C1.07081 16.8232 0.595937 16.8232 0.303044 16.5303C0.0101507 16.2374 0.0101507 15.7626 0.303044 15.4697L14.0227 1.75L4.58337 1.75C4.16916 1.75 3.83337 1.41421 3.83337 1C3.83337 0.585787 4.16916 0.25 4.58337 0.25Z" fill="#141414"/>
</svg>
