<svg width="19" height="24" viewBox="0 0 19 24" fill="none" xmlns="http://www.w3.org/2000/svg">
<path fill-rule="evenodd" clip-rule="evenodd" d="M17.986 15.1524L10.031 23.1074C9.89038 23.248 9.69962 23.3271 9.50071 23.3271C9.30179 23.3271 9.11103 23.248 8.97038 23.1074L1.01543 15.1524C0.722532 14.8595 0.722533 14.3847 1.01543 14.0918C1.30832 13.7989 1.78319 13.7989 2.07609 14.0918L8.75071 20.7664V1.36386C8.75071 0.949644 9.08649 0.613858 9.50071 0.613857C9.91492 0.613858 10.2507 0.949643 10.2507 1.36386L10.2507 20.7664L16.9253 14.0918C17.2182 13.7989 17.6931 13.7989 17.986 14.0918C18.2789 14.3847 18.2789 14.8595 17.986 15.1524Z" fill="#FFD11A"/>
</svg>
