<svg width="50" height="50" viewBox="0 0 50 50" fill="none" xmlns="http://www.w3.org/2000/svg">
<path d="M28.9275 34.4167H21.122V50.0001H28.9275V34.4167Z" fill="#FFD11A"/>
<path d="M28.9275 0H21.122V15.5833H28.9275V0Z" fill="#FFD11A"/>
<path d="M34.4096 21.0946V28.9001H49.993V21.0946H34.4096Z" fill="#FFD11A"/>
<path d="M0 21.1017L0 28.9072H15.5833V21.1017H0Z" fill="#FFD11A"/>
<path d="M34.4245 28.8769L28.9052 34.3962L39.9242 45.4152L45.4435 39.8959L34.4245 28.8769Z" fill="#404040"/>
<path d="M10.0906 4.54552L4.5713 10.0648L15.5903 21.0838L21.1096 15.5645L10.0906 4.54552Z" fill="#404040"/>
<path d="M28.886 15.5885L34.4053 21.1078L45.4243 10.0888L39.905 4.56949L28.886 15.5885Z" fill="#404040"/>
<path d="M4.55722 39.9198L10.0765 45.4391L21.0955 34.4201L15.5762 28.9008L4.55722 39.9198Z" fill="#404040"/>
</svg>
