<svg width="48" height="49" viewBox="0 0 48 49" fill="none" xmlns="http://www.w3.org/2000/svg">
<path d="M0 16.9996C0 23.6554 3.94088 29.3908 9.61654 31.9996H0C0 41.1123 7.3873 48.4996 16.5 48.4996C23.1558 48.4996 28.8912 44.5588 31.5 38.8831V48.4996C40.6127 48.4996 48 41.1123 48 31.9996C48 25.3438 44.0591 19.6085 38.3835 16.9996H48C48 7.88694 40.6127 0.499634 31.5 0.499634C24.8442 0.499634 19.1088 4.44051 16.5 10.1162V0.499634C7.3873 0.499634 0 7.88694 0 16.9996Z" fill="#404040"/>
<path d="M31.5 24.4998C31.5 28.6419 28.1421 31.9998 24 31.9998C19.8579 31.9998 16.5 28.6419 16.5 24.4998C16.5 20.3576 19.8579 16.9998 24 16.9998C28.1421 16.9998 31.5 20.3576 31.5 24.4998Z" fill="#FFD11A"/>
</svg>
